<?xml version="1.0" standalone="no"?>
<!DOCTYPE svg PUBLIC "-//W3C//DTD SVG 20010904//EN"
 "http://www.w3.org/TR/2001/REC-SVG-20010904/DTD/svg10.dtd">
<svg version="1.0" xmlns="http://www.w3.org/2000/svg"
 width="700.000000pt" height="700.000000pt" viewBox="0 0 700.000000 700.000000"
 preserveAspectRatio="xMidYMid meet">
<metadata>
Created by potrace 1.14, written by Peter Selinger 2001-2017
</metadata>
<g transform="translate(0.000000,700.000000) scale(0.100000,-0.100000)"
fill="#000000" stroke="none">
<path d="M2551 6213 c3 -20 -2 -27 -11 -13 -8 13 -10 12 -10 -2 0 -10 -5 -18
-11 -18 -6 0 -9 6 -6 13 3 8 -1 14 -9 14 -7 0 -11 -4 -9 -8 3 -3 -3 -13 -12
-20 -15 -12 -16 -12 -10 3 3 10 3 20 -2 22 -10 7 -11 -26 -1 -39 5 -5 2 -16
-6 -23 -8 -7 -14 -10 -14 -7 0 3 -8 1 -19 -4 -14 -8 -26 -5 -52 14 -43 32 -52
32 -15 0 16 -14 26 -28 22 -33 -4 -4 -14 2 -22 12 -8 11 -14 15 -14 9 0 -7 5
-15 10 -18 14 -9 13 -25 -2 -25 -6 0 -23 -10 -36 -22 -14 -13 -22 -16 -18 -8
7 14 2 8 -37 -41 -44 -55 -89 -132 -107 -181 -6 -18 -14 -26 -24 -22 -8 3 -17
0 -21 -5 -3 -6 -11 -9 -16 -6 -5 4 -9 1 -9 -4 0 -14 17 -14 25 -1 9 15 25 12
25 -6 0 -8 -4 -13 -8 -10 -5 3 -8 -5 -7 -17 1 -12 -1 -26 -5 -32 -4 -5 -13
-38 -20 -73 -7 -34 -17 -65 -22 -69 -6 -3 -4 -10 3 -15 10 -7 7 -8 -11 -4 -22
4 -23 4 -7 -8 16 -13 25 -32 10 -23 -5 3 -9 -14 -10 -36 -1 -23 -4 -58 -7 -77
-2 -19 -7 -78 -11 -130 -8 -128 -9 -133 -29 -136 -10 -1 -21 -5 -24 -9 -4 -3
5 -4 18 -2 24 5 25 2 25 -39 0 -24 -4 -44 -8 -44 -4 0 -3 -9 3 -20 6 -11 7
-20 2 -20 -4 0 -8 -9 -8 -20 0 -11 4 -20 9 -20 5 0 -1 -9 -14 -19 -18 -15 -21
-22 -12 -31 8 -9 11 -8 10 5 -1 10 3 19 8 21 6 2 10 -9 10 -26 0 -16 -2 -30
-5 -30 -3 0 -5 -20 -5 -44 0 -24 3 -42 8 -39 4 2 7 0 7 -5 0 -6 -7 -12 -15
-16 -8 -3 -15 -11 -14 -18 0 -10 2 -10 6 0 8 21 18 13 20 -15 0 -16 -4 -31
-10 -35 -9 -6 -8 -8 1 -8 9 0 13 -12 12 -37 -1 -21 -1 -40 0 -43 6 -19 7 -99
1 -96 -4 3 -8 -1 -8 -9 0 -8 5 -11 10 -8 6 3 8 -9 5 -31 -2 -20 0 -36 4 -36 4
0 8 -5 8 -11 0 -5 -5 -7 -11 -3 -8 5 -8 1 0 -14 6 -11 13 -59 17 -108 9 -130
12 -167 17 -189 2 -11 -1 -26 -7 -34 -8 -11 -8 -13 2 -7 8 5 12 0 12 -16 0
-13 3 -33 6 -46 5 -18 2 -24 -15 -29 -11 -3 -21 -9 -21 -15 0 -5 9 -4 20 2 15
8 20 8 21 -2 0 -7 2 -22 3 -34 2 -16 -4 -21 -23 -22 -14 -1 -66 -4 -116 -7
-49 -2 -135 -7 -190 -10 -55 -2 -110 -7 -122 -9 -14 -3 -23 0 -23 7 0 9 -2 9
-8 1 -4 -6 -50 -15 -102 -19 -119 -9 -170 -14 -192 -21 -11 -3 -18 0 -18 8 0
10 -2 10 -8 1 -5 -7 -30 -15 -58 -18 -70 -8 -154 -23 -243 -44 -25 -5 -49 -8
-53 -5 -4 3 -8 1 -8 -4 0 -5 -10 -9 -22 -8 -13 1 -32 -4 -43 -11 -12 -7 -30
-14 -40 -16 -11 -2 -31 -9 -45 -14 -14 -6 -28 -9 -32 -6 -5 2 -8 -1 -8 -6 0
-6 -3 -10 -7 -9 -5 1 -30 -8 -57 -20 -39 -18 -52 -20 -65 -10 -13 10 -14 10
-4 -2 10 -11 7 -17 -18 -32 -17 -10 -35 -15 -41 -12 -7 4 -8 2 -4 -4 3 -6 -3
-16 -16 -23 -34 -18 -111 -99 -139 -147 -14 -23 -29 -39 -33 -35 -4 4 -4 -1 0
-11 5 -13 4 -17 -4 -12 -7 4 -10 2 -6 -7 2 -7 -1 -27 -7 -43 -14 -34 -21 -244
-8 -244 5 0 9 -10 8 -22 0 -22 -1 -22 -9 -3 -5 11 -9 14 -9 6 -1 -10 -4 -11
-14 -2 -8 6 -17 8 -20 4 -4 -3 -7 -2 -7 3 0 14 -99 1 -135 -18 -113 -60 -130
-225 -32 -316 30 -28 101 -51 141 -45 37 5 103 39 109 55 3 10 10 8 25 -6 20
-17 23 -18 46 -2 23 15 25 14 31 -3 3 -11 17 -36 30 -55 13 -20 20 -36 15 -36
-6 0 -10 5 -10 11 0 5 -4 8 -8 5 -11 -6 -24 4 -40 33 -12 21 -12 23 2 18 10
-4 13 -1 10 8 -5 12 -9 12 -28 0 -13 -8 -27 -12 -31 -8 -5 5 -3 0 4 -9 15 -20
26 -25 15 -7 -4 7 -2 10 5 8 30 -10 7 -23 -42 -25 -124 -4 -210 -94 -211 -220
0 -146 129 -243 272 -205 56 16 117 76 133 133 7 24 16 47 21 53 12 14 10 27
-4 19 -10 -6 -10 -5 -1 7 16 20 17 31 2 40 -8 4 -10 11 -7 15 4 3 29 -17 56
-45 27 -28 54 -51 61 -51 10 0 15 -14 12 -34 -1 -5 5 -6 14 -2 9 3 18 -1 21
-9 4 -8 10 -12 15 -9 5 3 9 0 9 -6 0 -6 5 -8 10 -5 6 4 9 1 8 -7 -2 -7 2 -12
7 -11 6 1 22 -7 35 -18 l25 -20 -25 12 c-14 7 -28 12 -32 11 -3 -1 -12 5 -18
13 -15 18 -30 20 -26 3 1 -7 1 -10 -1 -5 -3 4 -9 7 -14 7 -6 0 -7 -6 -3 -12 5
-9 2 -9 -9 1 -9 7 -17 9 -17 3 0 -5 -17 -17 -38 -25 -124 -50 -185 -195 -132
-314 84 -189 326 -199 416 -16 25 50 35 147 19 173 -8 14 -2 13 31 -5 33 -17
54 -5 34 20 -17 21 -1 36 25 24 18 -9 18 -9 -2 -5 -31 6 -29 -12 2 -24 17 -7
23 -15 20 -30 -6 -29 34 -45 54 -22 12 15 12 15 7 -4 -6 -19 0 -23 46 -36 l53
-15 -45 -23 c-90 -46 -135 -121 -135 -226 0 -55 5 -81 25 -119 24 -47 99 -114
128 -115 7 0 11 -3 8 -8 -8 -14 129 -6 165 10 84 36 145 119 148 201 1 12 5
16 14 11 9 -6 9 -5 1 7 -7 8 -12 27 -12 42 0 16 -13 55 -30 87 -28 54 -29 60
-14 72 15 11 15 11 4 -3 -10 -14 -9 -17 7 -22 11 -2 25 0 32 7 9 8 10 8 6 0
-4 -8 5 -14 26 -18 17 -3 43 -8 57 -11 14 -3 40 -7 57 -9 18 -2 39 -9 48 -16
9 -7 15 -8 15 -2 0 5 9 8 20 5 28 -7 25 -19 -10 -33 -16 -7 -46 -31 -65 -54
-47 -53 -49 -57 -54 -81 -8 -36 -6 -183 1 -179 5 3 8 0 8 -5 0 -18 3 -25 16
-38 7 -7 21 -23 31 -35 10 -13 28 -28 38 -34 11 -6 20 -16 20 -22 0 -6 4 -14
9 -19 5 -5 6 -2 1 6 -7 11 -3 12 16 6 29 -11 179 -14 179 -4 0 3 14 12 30 19
17 7 30 16 30 21 0 5 6 9 14 9 8 0 17 7 20 16 3 8 11 12 17 8 7 -4 9 -3 5 4
-3 6 2 26 13 45 11 19 17 38 13 43 -4 4 2 4 12 0 14 -5 16 -3 9 6 -8 11 -10
37 -4 65 0 3 9 -2 20 -11 16 -15 19 -15 24 -2 4 11 1 13 -10 9 -11 -4 -14 -3
-9 6 4 6 4 11 -1 10 -22 -4 -30 3 -30 29 0 15 -2 34 -4 42 -2 8 1 14 7 13 7
-1 20 8 30 20 18 21 18 21 1 7 -33 -25 -52 -21 -67 13 -8 18 -13 36 -12 40 1
5 -1 6 -5 4 -5 -3 -24 8 -43 24 -19 17 -26 26 -15 21 11 -5 35 -8 53 -7 17 0
32 -2 32 -6 0 -4 12 -4 28 0 37 9 74 3 65 -12 -5 -9 -3 -9 8 0 16 13 59 14 59
1 0 -4 5 -8 11 -8 5 0 7 4 4 10 -3 5 -1 10 4 10 6 0 11 -5 11 -11 0 -8 4 -8
13 -2 6 5 31 8 55 7 57 -2 56 -2 42 -19 -16 -20 -34 -19 -26 1 3 9 2 12 -4 9
-6 -4 -10 -12 -8 -18 1 -7 -12 -34 -30 -61 -18 -28 -32 -54 -32 -58 0 -5 -6
-3 -14 4 -8 7 -11 17 -8 22 3 5 0 6 -7 2 -9 -6 -9 -11 1 -23 7 -9 13 -33 13
-54 0 -32 -3 -39 -20 -40 -19 0 -19 -1 2 -9 14 -6 21 -16 18 -28 -2 -10 8 -38
21 -63 13 -24 27 -51 30 -60 3 -8 23 -26 44 -39 21 -13 37 -26 35 -29 -2 -4 8
-7 21 -7 13 -1 32 -5 42 -9 23 -10 92 -12 92 -2 0 4 11 7 23 7 24 0 105 52
120 76 4 7 13 19 20 26 8 7 14 15 15 18 0 3 5 18 11 33 6 15 10 31 10 35 -1 4
0 12 1 17 1 6 1 24 0 41 -1 18 4 35 11 40 9 5 10 2 5 -12 -5 -14 -4 -16 5 -7
13 13 2 36 -15 30 -7 -3 -13 5 -14 19 -2 24 12 32 23 14 3 -5 11 -10 16 -10 6
0 8 4 5 9 -4 5 0 11 6 14 7 3 -4 4 -25 2 -31 -2 -40 2 -47 19 -14 34 -65 85
-101 101 -38 16 -35 17 34 19 38 1 46 -1 42 -14 -3 -8 4 -4 16 10 14 17 19 19
15 8 -3 -10 -1 -18 4 -18 6 0 10 6 10 13 0 15 57 20 66 5 5 -7 2 -9 -9 -5 -11
4 -14 2 -10 -9 6 -16 -16 -16 -30 1 -5 6 -7 4 -4 -5 2 -8 10 -14 16 -13 6 2
11 -2 11 -7 0 -14 -23 -13 -38 2 -10 10 -17 10 -32 0 -26 -16 -30 -15 -30 3 0
8 -5 15 -11 15 -10 0 -5 -13 14 -38 8 -10 12 -9 22 5 13 17 45 12 45 -8 0 -8
-4 -8 -13 -1 -10 8 -16 6 -26 -10 -7 -11 -8 -17 -3 -14 6 3 13 -1 16 -10 4 -9
9 -14 13 -11 3 4 0 13 -7 22 -7 8 -8 15 -2 15 5 0 16 -7 23 -16 11 -14 11 -18
-4 -29 -14 -10 -11 -12 23 -12 48 0 57 -7 39 -30 -12 -14 -12 -16 0 -8 11 6
13 4 8 -9 -4 -9 -3 -15 3 -11 5 3 7 30 5 60 -3 32 -1 55 5 55 6 0 10 -6 10
-13 0 -7 9 -18 19 -24 15 -10 20 -9 25 2 3 8 0 17 -6 21 -7 4 -8 3 -4 -4 4 -7
3 -12 -3 -12 -6 0 -15 9 -21 19 -9 18 -7 19 25 17 19 -2 33 0 30 3 -2 4 1 13
6 21 8 12 9 9 7 -10 -2 -15 -9 -24 -17 -22 -8 2 -11 -3 -8 -12 3 -8 0 -34 -7
-58 -7 -23 -12 -52 -10 -63 2 -11 5 -32 6 -48 1 -15 6 -27 10 -27 4 0 8 -6 8
-13 0 -20 53 -97 67 -97 7 0 13 -4 13 -9 0 -5 16 -15 35 -22 24 -9 34 -18 30
-28 -4 -10 -2 -11 7 -4 7 5 31 8 53 7 55 -4 113 13 155 44 19 15 39 26 43 24
5 -1 6 2 3 6 -3 5 3 17 14 27 11 10 17 21 15 25 -3 4 1 10 8 13 7 2 14 20 15
38 1 19 7 36 12 37 6 2 10 8 10 13 0 6 -4 8 -8 5 -12 -7 -9 38 3 46 6 5 4 8
-5 8 -8 1 -4 6 9 11 19 8 21 12 11 24 -7 8 -17 15 -23 15 -6 0 -2 -7 9 -15 16
-12 17 -14 3 -15 -20 0 -34 29 -20 43 5 5 21 0 40 -14 23 -17 33 -20 44 -11 8
7 17 9 20 5 11 -10 8 -23 -4 -20 -22 4 -20 -22 3 -33 21 -10 21 -10 6 3 -21
17 -23 28 -5 24 6 -1 11 6 11 16 -1 9 2 17 7 17 5 0 9 -8 9 -19 0 -39 82 -135
127 -147 13 -3 20 -11 16 -17 -4 -6 -1 -7 7 -2 7 4 16 2 21 -6 5 -8 9 -9 9 -4
0 6 23 9 52 8 35 -1 67 5 94 18 42 20 104 72 104 87 0 5 8 17 18 28 9 10 17
25 18 32 1 6 2 26 3 43 0 16 5 28 10 24 5 -3 13 -1 16 5 4 6 1 9 -6 8 -8 -2
-14 7 -15 20 -1 12 -4 25 -7 29 -4 3 1 11 10 18 13 10 14 15 4 31 -11 18 -12
17 -6 -3 8 -30 1 -29 -20 3 -9 15 -13 24 -8 21 7 -5 10 24 4 56 -2 13 -18 7
-18 -8 0 -8 4 -12 9 -9 4 3 8 1 8 -5 0 -14 -20 -25 -21 -12 -1 6 -2 17 -3 24
-1 6 -7 11 -14 10 -6 -2 -9 4 -6 11 3 8 16 13 30 11 14 -1 28 4 34 14 13 22
13 5 0 -19 -9 -16 -5 -24 20 -46 16 -15 30 -32 30 -37 0 -6 -11 0 -25 13 -14
13 -25 19 -25 14 0 -5 9 -16 20 -24 11 -8 20 -21 21 -30 0 -10 3 -9 9 5 8 19
11 18 14 -7 1 -7 11 -12 23 -11 17 2 21 -1 17 -15 -5 -14 -4 -14 4 -2 15 20 4
32 -21 24 -12 -3 -19 -3 -15 1 4 4 -1 20 -12 35 -21 30 -25 41 -12 39 22 -4
31 3 25 18 -4 10 -2 14 4 10 5 -3 10 0 10 8 0 8 -4 15 -8 15 -4 0 -6 11 -5 25
2 13 -1 22 -5 19 -5 -3 -9 0 -9 5 0 6 4 11 9 11 17 0 26 -26 26 -72 0 -27 4
-48 8 -48 5 0 5 -4 2 -10 -3 -5 -1 -10 4 -10 6 0 11 -9 11 -20 0 -11 4 -20 8
-20 11 0 55 -61 55 -76 0 -7 4 -11 9 -8 5 3 6 10 3 15 -8 12 68 -32 77 -46 5
-6 8 -5 8 3 0 7 4 11 9 7 17 -10 91 -13 91 -3 0 5 4 7 8 4 5 -3 21 2 36 9 16
8 33 12 39 8 5 -3 7 -2 4 4 -4 5 4 15 16 22 28 15 71 76 85 121 14 43 21 117
13 126 -3 3 -6 9 -6 12 -2 19 -20 60 -37 85 -20 27 -20 28 -2 25 14 -2 19 3
19 20 0 12 -4 22 -10 23 -5 0 -15 10 -22 23 -15 28 -55 30 -59 3 -1 -9 2 -15
7 -11 5 3 7 9 4 14 -3 5 4 8 15 7 13 -1 19 -6 15 -15 -2 -7 -1 -11 4 -8 5 3
12 -1 15 -10 3 -8 10 -12 16 -9 5 3 10 -2 10 -13 0 -27 -39 -18 -80 19 -18 17
-34 28 -37 26 -2 -3 -20 1 -40 8 -20 7 -50 11 -67 10 -17 -2 -23 -1 -13 1 9 3
17 10 17 15 0 5 8 9 18 9 9 0 26 7 36 15 10 8 22 12 27 10 4 -3 10 -1 14 5 10
16 76 41 88 33 6 -3 7 -1 3 6 -4 6 0 14 11 18 10 4 20 9 23 12 3 4 16 12 30
19 29 14 77 41 117 67 l28 18 -26 -29 c-34 -39 -59 -80 -59 -98 0 -8 -6 -17
-12 -19 -8 -3 -9 -6 -2 -6 8 -1 9 -14 4 -41 -4 -22 -3 -40 2 -40 5 0 4 -10 -3
-21 -7 -13 -7 -19 -1 -15 6 3 13 2 17 -4 3 -5 1 -10 -5 -10 -6 0 2 -17 17 -37
15 -20 22 -34 16 -29 -7 4 -13 2 -13 -3 0 -6 9 -11 20 -11 23 0 25 -10 8 -30
-11 -12 -10 -12 3 -2 16 12 29 7 29 -10 0 -5 -4 -7 -9 -4 -5 3 -15 -2 -22 -12
-12 -15 -12 -16 1 -6 18 13 46 11 84 -5 25 -10 27 -13 15 -29 -11 -13 -9 -13
9 2 16 14 22 15 22 6 0 -11 3 -11 11 -3 8 8 20 8 36 2 17 -6 35 -4 58 6 19 7
35 11 35 8 0 -3 9 2 20 12 10 9 26 15 34 12 11 -4 13 -1 9 10 -5 12 -1 14 18
9 13 -3 18 -3 11 0 -10 4 -6 15 13 39 14 19 25 38 25 42 0 5 6 15 13 21 8 9
12 45 12 102 1 49 -1 87 -3 85 -5 -4 -52 61 -52 72 0 9 -31 32 -84 59 -51 27
-99 33 -151 20 -29 -7 -29 -7 10 23 22 16 42 28 44 25 2 -2 11 5 21 16 9 10
23 20 31 22 8 2 21 11 30 20 8 9 21 18 29 20 7 2 26 15 42 31 16 15 32 27 36
27 4 0 25 16 47 35 21 19 41 33 43 31 2 -2 -5 -19 -14 -38 -13 -23 -18 -58
-19 -116 -1 -45 2 -78 5 -71 5 6 10 0 14 -16 4 -15 14 -34 22 -42 8 -8 11 -19
8 -25 -4 -7 -2 -8 5 -4 6 4 14 0 17 -8 3 -9 12 -16 18 -16 7 0 22 -9 33 -19
12 -11 24 -17 27 -14 3 4 6 2 6 -4 0 -6 9 -9 22 -5 12 3 19 1 15 -5 -5 -8 58
-8 103 1 24 4 74 30 82 41 4 5 8 6 8 1 0 -15 70 78 76 101 3 13 9 21 13 19 4
-3 6 31 5 74 -2 120 -55 202 -154 242 -45 18 -108 22 -145 9 -24 -9 -17 1 39
53 46 43 66 68 61 76 -5 9 -4 11 4 6 14 -9 123 93 117 110 -2 6 1 11 7 11 8 0
12 -23 13 -66 1 -103 46 -172 138 -212 62 -27 129 -21 191 16 138 80 147 281
18 380 -50 38 -131 55 -182 37 -23 -8 -31 -7 -35 4 -3 8 -2 13 3 9 11 -6 57
65 53 80 -2 5 -1 7 3 3 4 -4 13 -2 20 5 15 16 65 94 62 99 -1 2 4 -3 11 -11 6
-8 12 -21 12 -28 0 -22 64 -86 105 -104 80 -37 175 -14 232 55 56 68 63 152
20 235 -41 81 -147 124 -237 97 -16 -5 -20 -4 -12 2 7 5 14 16 16 24 1 9 8 23
15 32 7 9 10 16 6 16 -4 0 -2 6 4 13 6 8 8 17 4 20 -3 4 -1 7 5 7 18 0 14 21
-5 36 -10 7 -15 14 -11 14 4 0 24 -16 44 -35 47 -46 84 -65 131 -67 98 -3 179
65 197 166 16 89 -61 198 -150 212 -27 4 -65 2 -86 -3 -42 -11 -49 -4 -37 40
5 18 4 27 -4 27 -8 0 -8 3 0 11 8 8 20 9 41 1 123 -43 244 85 202 213 -36 109
-169 145 -259 69 -21 -17 -32 -21 -37 -13 -5 8 -3 9 6 4 9 -6 11 -4 5 5 -6 9
-4 11 5 5 9 -6 11 -4 5 5 -5 8 -4 11 1 7 6 -3 10 5 10 18 0 16 -4 21 -15 17
-14 -5 -14 -4 -1 13 9 11 10 16 3 11 -15 -9 -17 6 -3 20 6 6 3 10 -9 11 -11 1
-22 -5 -25 -13 -3 -9 -1 -12 4 -9 6 3 10 2 10 -3 0 -5 -9 -12 -21 -15 -16 -4
-19 -2 -13 11 3 9 6 25 6 35 -1 11 4 15 11 10 7 -4 5 2 -3 12 -14 17 -13 18 3
12 10 -4 21 -7 23 -7 3 0 2 -4 -1 -10 -3 -5 -1 -10 4 -10 6 0 11 4 11 8 0 5
13 7 29 4 98 -14 176 112 127 207 -43 82 -172 95 -222 22 -9 -12 -23 -17 -41
-15 -21 3 -23 2 -8 -4 24 -8 31 -32 10 -32 -8 0 -15 5 -15 10 0 6 -5 10 -11
10 -8 0 -8 -5 1 -15 7 -8 9 -15 4 -15 -14 0 -54 80 -41 81 7 0 2 4 -10 9 -13
5 -23 14 -23 20 0 6 5 8 12 4 7 -4 8 -3 4 5 -4 6 -11 9 -16 6 -4 -3 -22 11
-40 31 -17 20 -56 51 -85 69 -30 18 -51 36 -47 40 4 5 2 5 -4 2 -6 -4 -26 -2
-45 4 -114 34 -270 28 -417 -16 -25 -8 -49 -12 -54 -9 -4 3 -8 0 -8 -6 0 -7
-7 -9 -17 -6 -10 4 -14 4 -10 0 4 -4 -14 -15 -41 -24 -26 -10 -60 -23 -77 -30
-16 -6 -31 -12 -32 -12 -1 0 -50 -24 -109 -54 -59 -29 -111 -51 -117 -47 -6 3
-7 2 -4 -3 3 -6 -15 -21 -41 -34 -26 -14 -83 -47 -127 -74 -44 -27 -85 -49
-92 -49 -7 0 -15 -7 -17 -14 -3 -8 -10 -11 -16 -8 -5 3 -10 2 -10 -3 0 -9
-126 -92 -141 -92 -5 0 -9 -4 -9 -8 0 -4 -29 -25 -65 -46 -36 -21 -68 -42 -71
-47 -3 -5 -10 -7 -15 -4 -5 4 -9 2 -9 -3 0 -6 -15 -19 -34 -30 l-33 -20 -19
36 c-11 19 -27 50 -37 69 -9 18 -22 33 -29 33 -6 0 -9 3 -5 6 10 11 -23 65
-35 58 -7 -4 -8 -3 -4 5 9 13 -83 173 -96 165 -4 -3 -5 1 -2 9 3 8 -2 21 -10
30 -9 9 -16 19 -16 22 0 16 -73 114 -81 109 -5 -3 -6 2 -3 10 3 9 0 22 -8 30
-7 7 -25 35 -41 60 -15 27 -32 44 -38 41 -6 -4 -10 -1 -8 6 3 28 -2 38 -38 75
-21 21 -32 34 -24 29 8 -5 2 8 -13 28 -16 20 -32 37 -37 37 -5 0 -8 3 -8 8 3
18 -2 32 -12 32 -5 0 -7 -5 -3 -12 4 -7 3 -8 -4 -4 -6 4 -9 13 -5 21 3 8 0 15
-6 15 -6 0 -11 6 -11 13 0 7 -13 27 -29 44 -16 18 -44 53 -62 78 -18 25 -34
45 -36 45 -2 0 -2 -4 2 -9 3 -5 2 -12 -3 -15 -4 -2 -9 5 -9 17 -1 12 -16 34
-33 50 -17 15 -28 27 -24 27 3 0 -18 25 -48 56 -29 30 -56 62 -61 69 -4 8 -15
11 -24 8 -10 -4 -14 -2 -10 4 4 5 -4 19 -16 30 -23 21 -79 26 -105 10 -8 -6
-12 -4 -10 5 2 7 -4 12 -12 10 -12 -3 -13 -1 -2 9 17 18 15 34 -3 19 -12 -10
-18 -10 -30 0 -8 7 -12 17 -8 23 4 6 0 8 -10 4 -10 -4 -16 -2 -14 5 1 6 -4 13
-12 16 -9 3 -11 0 -7 -9 4 -8 -4 0 -18 16 -17 19 -26 25 -26 15 0 -9 -8 -3
-18 13 -9 15 -20 27 -25 27 -4 0 -5 -4 -2 -10 3 -5 2 -10 -3 -10 -6 0 -13 7
-16 15 -3 9 -11 15 -18 14 -19 -2 -58 12 -58 22 0 4 -8 6 -18 4 -11 -2 -19 3
-19 10 0 8 4 12 8 10 4 -3 6 3 5 12 -2 10 4 21 13 25 12 5 11 7 -6 7 -13 1
-26 1 -29 0 -4 0 -11 5 -15 13 -7 10 -9 10 -9 0 0 -8 -5 -10 -12 -5 -7 4 -20
8 -28 8 -8 0 -21 4 -28 8 -7 5 -12 5 -11 0z m64 -25 c6 -3 18 -4 28 -3 9 2 15
0 12 -5 -3 -5 -1 -10 4 -12 5 -1 4 -11 -3 -20 -11 -14 -19 -16 -46 -8 -18 5
-37 7 -43 3 -6 -3 -7 -1 -3 5 3 5 0 12 -6 15 -7 3 -3 4 10 4 12 -1 22 -5 22
-10 0 -5 6 -7 14 -4 7 3 19 0 26 -6 10 -9 11 -9 6 1 -4 6 -2 12 4 12 6 0 8 5
4 11 -5 8 -9 8 -14 -1 -5 -9 -9 -9 -14 -1 -4 6 -12 9 -17 6 -5 -4 -9 0 -9 7 0
8 -3 9 -8 3 -4 -5 -14 -10 -22 -10 -9 0 -14 -7 -12 -19 3 -18 2 -18 -14 -5
-13 10 -16 10 -10 1 9 -16 -25 -13 -36 3 -10 14 2 26 21 20 9 -3 25 1 35 8 19
14 53 16 71 5z m484 -284 c9 -20 7 -25 -9 -34 -15 -8 -22 -6 -33 10 -7 11 -16
18 -18 17 -2 -2 -11 4 -20 13 -14 15 -12 17 27 17 35 1 44 -3 53 -23z m37 -23
c-4 -5 0 -12 6 -15 7 -3 6 -4 -4 -3 -9 1 -24 -7 -33 -18 -10 -13 -14 -15 -13
-5 2 8 12 22 23 32 23 20 29 22 21 9z m16 -38 c-6 -3 -10 -8 -7 -13 3 -4 -2
-10 -10 -14 -8 -3 -17 0 -21 6 -5 7 -2 8 6 3 9 -6 12 -4 8 6 -4 10 1 15 16 16
11 0 15 -1 8 -4z m28 -24 c0 -5 5 -7 11 -3 6 3 3 -5 -6 -20 -20 -30 -31 -35
-16 -8 7 13 6 23 -1 30 -9 9 -9 12 0 12 7 0 12 -5 12 -11z m-26 -24 c-4 -8 -8
-15 -10 -15 -2 0 -4 7 -4 15 0 8 4 15 10 15 5 0 7 -7 4 -15z m71 -4 c3 -5 0
-13 -6 -17 -8 -5 -9 -3 -4 6 6 10 4 12 -9 7 -10 -4 -15 -3 -11 3 8 13 22 13
30 1z m-19 -49 c1 -18 -2 -20 -12 -11 -16 13 -19 23 -4 14 6 -3 10 -2 10 4 0
5 -5 12 -10 14 -6 3 -5 4 2 3 7 -1 14 -12 14 -24z m48 -8 c15 -6 15 -8 -1 -20
-10 -7 -22 -13 -28 -13 -5 0 -1 5 10 11 19 11 19 11 0 19 -11 4 -15 8 -8 8 6
1 19 -2 27 -5z m23 -28 c-10 -8 -18 -17 -17 -20 1 -4 -1 -12 -4 -19 -2 -6 -4
-2 -2 11 1 13 9 28 17 33 22 14 26 10 6 -5z m23 -30 c0 -2 -7 -7 -16 -10 -8
-3 -12 -2 -9 4 6 10 25 14 25 6z m51 -33 c13 -16 12 -17 -3 -4 -10 7 -18 15
-18 17 0 8 8 3 21 -13z m-39 -10 c-6 -3 -9 -10 -6 -15 4 -7 2 -8 -5 -4 -9 6
-9 11 0 22 6 8 15 12 18 8 3 -4 0 -9 -7 -11z m43 -21 c-3 -3 -11 0 -18 7 -9
10 -8 11 6 5 10 -3 15 -9 12 -12z m-11 -30 c3 -5 -1 -9 -9 -9 -8 0 -12 4 -9 9
3 4 7 8 9 8 2 0 6 -4 9 -8z m42 -4 c4 -7 3 -8 -4 -4 -7 4 -12 2 -12 -5 0 -7
-3 -10 -6 -6 -6 5 3 27 11 27 2 0 7 -5 11 -12z m36 -32 c7 4 8 2 4 -5 -9 -13
-26 -5 -25 12 0 9 2 8 6 -1 2 -6 10 -9 15 -6z m-52 -6 c0 -5 -2 -10 -4 -10 -3
0 -8 5 -11 10 -3 6 -1 10 4 10 6 0 11 -4 11 -10z m45 -38 c-3 -3 -11 0 -18 7
-9 10 -8 11 6 5 10 -3 15 -9 12 -12z m6 -35 c-10 -9 -11 -8 -5 6 3 10 9 15 12
12 3 -3 0 -11 -7 -18z m28 -14 c-12 -14 -12 -16 2 -11 9 4 16 1 16 -7 0 -7 -8
-10 -19 -7 -21 5 -23 13 -6 30 18 18 22 15 7 -5z m81 -87 c0 -2 -7 -7 -16 -10
-8 -3 -12 -2 -9 4 6 10 25 14 25 6z m-3 -31 c0 -8 -4 -12 -9 -9 -5 3 -6 10 -3
15 9 13 12 11 12 -6z m59 -21 c1 -9 0 -13 -4 -10 -3 4 -7 14 -8 22 -1 9 0 13
4 10 3 -4 7 -14 8 -22z m21 -89 c0 -8 -4 -12 -9 -9 -5 3 -6 10 -3 15 9 13 12
11 12 -6z m38 6 c3 -5 2 -12 -3 -15 -5 -3 -9 1 -9 9 0 17 3 19 12 6z m1 -66
c-1 -8 -5 -17 -8 -21 -5 -4 -4 16 1 34 3 9 9 -1 7 -13z m35 -12 c13 -16 12
-17 -3 -4 -10 7 -18 15 -18 17 0 8 8 3 21 -13z m86 -148 c0 -8 -4 -12 -9 -9
-5 3 -6 10 -3 15 9 13 12 11 12 -6z m2163 -74 c0 -16 5 -42 12 -58 6 -15 11
-31 10 -35 -1 -5 5 -8 13 -8 8 0 15 -4 15 -8 0 -5 -7 -9 -15 -9 -8 0 -16 4
-16 9 -2 13 -5 21 -17 51 -7 16 -12 34 -12 42 0 8 -5 17 -10 20 -12 7 -4 25
11 25 5 0 9 -13 9 -29z m45 -131 c3 -5 -1 -10 -10 -10 -9 0 -13 5 -10 10 3 6
8 10 10 10 2 0 7 -4 10 -10z m0 -29 c3 -5 1 -12 -5 -16 -5 -3 -10 1 -10 9 0
18 6 21 15 7z m-2040 -11 c-3 -5 -12 -10 -18 -10 -7 0 -6 4 3 10 19 12 23 12
15 0z m2080 -51 c-3 -16 0 -19 13 -14 13 5 11 1 -5 -17 -15 -16 -19 -28 -13
-39 6 -10 5 -22 -3 -33 -11 -15 -13 -13 -14 16 -3 44 -8 66 -16 75 -6 5 24 30
40 33 1 0 0 -9 -2 -21z m20 -279 c3 -6 -1 -7 -9 -4 -18 7 -21 14 -7 14 6 0 13
-4 16 -10z m10 -24 c9 4 12 -5 11 -28 -1 -22 -7 -33 -16 -33 -8 0 -20 -6 -25
-13 -8 -10 -11 -9 -11 7 0 11 4 18 7 15 4 -2 10 0 14 6 3 5 2 10 -2 10 -5 0
-10 12 -11 27 -2 20 1 24 9 16 6 -6 17 -9 24 -7z m-2 -86 c-13 -5 -23 -15 -23
-21 0 -8 5 -7 17 2 11 10 14 10 9 2 -4 -8 -2 -13 5 -13 6 0 0 -10 -15 -21 -15
-12 -30 -19 -33 -15 -4 3 -1 6 6 6 7 0 9 5 6 10 -4 6 -12 7 -18 3 -7 -4 -6 0
2 10 7 9 10 17 5 17 -4 0 1 7 12 15 10 8 26 14 34 14 8 0 5 -4 -7 -9z m-73
-240 c0 -5 -5 -10 -11 -10 -5 0 -7 5 -4 10 3 6 8 10 11 10 2 0 4 -4 4 -10z
m-10 -40 c0 -5 -4 -10 -10 -10 -5 0 -10 5 -10 10 0 6 5 10 10 10 6 0 10 -4 10
-10z m30 -45 c0 -1 -12 -2 -26 -2 -17 0 -22 2 -13 7 10 7 39 3 39 -5z m-29
-42 c-12 -20 -14 -14 -5 12 4 9 9 14 11 11 3 -2 0 -13 -6 -23z m-41 -27 c-1
-5 4 -13 12 -18 11 -8 11 -9 0 -6 -8 2 -13 7 -12 12 1 5 -4 13 -12 18 -11 8
-11 9 0 6 8 -2 13 -7 12 -12z m-55 -106 c-3 -5 -12 -10 -18 -10 -7 0 -6 4 3
10 19 12 23 12 15 0z m-78 -185 c0 -8 -4 -12 -9 -9 -4 3 -8 9 -8 15 0 5 4 9 8
9 5 0 9 -7 9 -15z m-163 -216 c3 -3 -4 -5 -14 -6 -11 -1 -22 2 -24 6 -5 8 30
8 38 0z m-60 -45 c3 -8 2 -12 -4 -9 -6 3 -10 10 -10 16 0 14 7 11 14 -7z
m-5112 -551 c-6 -18 -34 -25 -48 -11 -16 16 -2 44 16 33 9 -6 9 -9 -1 -16 -7
-4 -11 -11 -8 -14 4 -3 12 1 18 9 9 11 9 17 -2 27 -8 8 -12 21 -9 31 3 15 8
12 21 -14 9 -18 15 -38 13 -45z m3738 -487 c0 -2 -7 -7 -16 -10 -8 -3 -12 -2
-9 4 6 10 25 14 25 6z m-3231 -15 c8 -5 16 -17 17 -25 1 -9 -2 -13 -8 -10 -5
3 -7 9 -3 12 3 3 -5 12 -17 19 -13 7 -18 12 -13 12 6 1 16 -3 24 -8z m3191
-15 c0 -21 -28 -39 -47 -31 -10 5 -22 7 -28 6 -5 -1 -5 3 2 10 10 10 15 10 27
0 18 -15 37 -6 29 14 -3 8 0 15 6 15 6 0 11 -6 11 -14z m-3145 -25 c2 -11 0
-21 -4 -21 -5 0 -8 11 -8 25 0 30 6 28 12 -4z m3120 19 c3 -5 1 -10 -4 -10 -6
0 -11 5 -11 10 0 6 2 10 4 10 3 0 8 -4 11 -10z m-3098 -32 c-3 -8 -6 -5 -6 6
-1 11 2 17 5 13 3 -3 4 -12 1 -19z m3038 -10 c-1 -12 -7 -24 -15 -26 -9 -3
-10 0 -4 9 6 11 3 10 -11 -1 -17 -14 -18 -13 -12 3 4 11 3 16 -3 12 -6 -3 -10
-2 -10 3 0 6 7 13 16 16 8 3 12 2 9 -4 -3 -6 -1 -10 4 -10 6 0 11 7 11 16 0 8
4 13 8 10 5 -3 8 -15 7 -28z m49 0 c4 4 2 -5 -4 -20 -8 -16 -20 -26 -31 -25
-21 1 -25 12 -9 22 6 4 8 11 5 16 -4 5 -3 14 1 21 5 8 11 6 19 -5 7 -9 15 -13
19 -9z m-108 -32 c1 -15 -4 -29 -9 -33 -6 -4 -8 2 -5 15 4 15 2 20 -5 15 -7
-4 -5 2 3 12 9 11 10 16 3 11 -8 -4 -13 -2 -13 4 0 25 25 2 26 -24z m-2974 6
c-2 -7 -8 -9 -11 -4 -3 5 -13 12 -21 15 -8 3 -3 5 11 4 18 -1 25 -6 21 -15z
m108 2 c0 -2 -7 -4 -15 -4 -8 0 -15 4 -15 10 0 5 7 7 15 4 8 -4 15 -8 15 -10z
m2835 -18 c-2 -14 3 -27 11 -30 12 -4 12 -10 4 -26 -8 -15 -8 -18 3 -14 15 5
32 -21 36 -57 0 -5 6 -7 12 -3 8 5 8 9 -1 14 -9 5 -9 9 -1 14 6 4 9 12 5 17
-3 5 -10 6 -16 3 -6 -4 -8 -1 -6 7 3 8 -1 22 -10 32 -11 12 -12 17 -2 17 6 0
10 6 7 14 -8 20 19 28 33 11 7 -8 16 -12 21 -9 5 3 9 3 9 0 0 -2 3 -12 6 -20
5 -12 1 -16 -17 -14 -25 3 -26 -2 -15 -49 11 -50 -26 -82 -55 -47 -8 10 -8 14
0 14 6 0 11 -5 11 -12 0 -6 3 -9 6 -5 3 3 2 12 -2 19 -5 7 -9 19 -9 25 0 7 -3
13 -7 13 -5 0 -13 0 -19 0 -5 0 -7 -5 -3 -12 4 -7 3 -8 -5 -4 -6 4 -9 13 -5
19 3 7 -1 4 -9 -6 -14 -17 -15 -17 -14 5 0 13 -2 29 -4 37 -2 7 1 15 8 18 8 3
11 -3 8 -16 -2 -12 0 -21 5 -21 12 0 20 29 9 35 -5 4 -7 11 -3 16 7 13 -19 7
-28 -6 -4 -6 -8 -2 -8 8 0 9 -4 17 -10 17 -5 0 -7 -6 -4 -13 3 -8 -2 -20 -11
-27 -9 -7 -15 -8 -15 -2 0 17 -52 6 -67 -14 -14 -19 -17 -15 -7 10 3 9 20 22
38 30 78 33 83 35 95 23 7 -7 12 -7 11 -2 -4 18 0 26 9 21 4 -3 7 -17 6 -30z
m-2791 -12 c3 -8 2 -12 -4 -9 -6 3 -10 10 -10 16 0 14 7 11 14 -7z m-39 -5
c11 -16 1 -19 -13 -3 -7 8 -8 14 -3 14 5 0 13 -5 16 -11z m68 -4 c-3 -9 -8
-14 -10 -11 -3 3 -2 9 2 15 9 16 15 13 8 -4z m39 -2 c-6 -2 -9 -10 -6 -15 4
-7 2 -8 -5 -4 -13 9 -5 26 12 25 9 0 8 -2 -1 -6z m2558 -10 c0 -14 -20 -39
-20 -26 0 6 -9 10 -20 8 -12 -2 -18 0 -15 6 4 5 10 7 15 4 5 -3 11 -1 15 5 7
12 25 14 25 3z m118 -10 c7 -62 -5 -84 -32 -58 -9 9 -16 13 -16 9 0 -4 -6 0
-13 11 -8 10 -19 15 -26 11 -7 -5 -10 -2 -9 6 5 21 20 27 44 18 16 -6 26 -5
34 6 16 18 16 18 18 -3z m-2637 -8 c11 6 11 5 2 -5 -12 -14 -33 -6 -33 13 0 8
3 7 9 -2 5 -8 14 -10 22 -6z m-57 -3 c3 -5 -1 -9 -9 -9 -8 0 -15 4 -15 9 0 4
4 8 9 8 6 0 12 -4 15 -8z m176 -42 c0 -5 -2 -10 -4 -10 -3 0 -8 5 -11 10 -3 6
-1 10 4 10 6 0 11 -4 11 -10z m57 -7 c0 -9 -4 -10 -14 -2 -7 6 -13 12 -13 14
0 1 6 2 13 2 8 0 14 -6 14 -14z m2114 -13 c6 0 7 5 3 12 -4 7 -3 8 5 4 8 -5 2
-16 -19 -36 -16 -15 -30 -33 -30 -39 0 -6 -7 -11 -15 -11 -18 0 -20 -20 -2
-21 9 0 9 -2 0 -5 -7 -3 -10 -11 -7 -19 3 -7 1 -16 -5 -19 -6 -4 -8 -13 -5
-20 3 -7 -3 -19 -12 -27 -15 -12 -17 -12 -9 0 5 10 4 12 -3 7 -8 -5 -10 -1 -5
9 5 13 7 14 14 3 5 -7 9 -8 9 -2 0 5 -6 19 -14 29 -8 11 -11 26 -9 35 4 10 0
8 -11 -5 -10 -11 -15 -15 -12 -10 2 6 -4 11 -14 11 -10 0 -16 -5 -14 -11 3 -5
-2 -1 -12 10 -11 14 -15 15 -11 4 3 -9 0 -16 -8 -16 -7 0 -11 6 -8 14 3 7 0
13 -7 13 -6 0 -9 -4 -5 -9 3 -5 1 -12 -4 -16 -10 -6 -7 -37 5 -57 5 -7 2 -9
-7 -4 -8 4 -6 1 4 -7 14 -11 15 -16 5 -21 -7 -3 -4 -4 8 -1 12 3 27 -1 34 -10
8 -10 9 -15 1 -15 -6 0 -11 5 -11 11 0 8 -5 7 -15 -1 -13 -11 -18 -10 -29 6
-8 10 -12 22 -10 26 3 5 0 8 -5 8 -6 0 -10 5 -8 12 1 7 -3 12 -10 13 -6 0 -26
14 -45 31 -18 17 -39 29 -46 26 -7 -2 -12 2 -12 10 0 10 -3 9 -10 -2 -5 -8
-10 -10 -10 -3 0 6 -11 10 -25 9 -13 -2 -22 0 -19 5 2 4 20 6 39 5 19 -2 35 1
35 6 0 6 6 8 14 5 7 -3 19 0 25 6 6 6 11 7 11 3 0 -5 6 -3 14 3 9 8 16 8 20 2
4 -6 16 -4 33 4 15 8 30 12 35 9 5 -3 15 0 23 6 8 7 15 9 15 5 0 -4 8 -1 17 6
11 10 14 10 9 2 -4 -7 -2 -13 3 -13 6 0 11 6 11 13 0 8 4 7 10 -3 8 -13 10
-12 10 4 0 12 5 16 15 13 8 -4 17 -2 20 4 4 5 10 7 15 4 5 -3 12 0 16 7 6 9 9
9 12 0 2 -7 8 -12 13 -12z m-2100 -27 c13 -16 12 -17 -3 -4 -10 7 -18 15 -18
17 0 8 8 3 21 -13z m89 3 c0 -2 -8 -10 -17 -17 -16 -13 -17 -12 -4 4 13 16 21
21 21 13z m121 -33 c13 -16 12 -17 -3 -4 -10 7 -18 15 -18 17 0 8 8 3 21 -13z
m134 -12 c3 -5 2 -12 -3 -15 -5 -3 -9 1 -9 9 0 17 3 19 12 6z m142 -36 c0 -8
-4 -12 -9 -9 -5 3 -6 10 -3 15 9 13 12 11 12 -6z m1073 -6 c-13 -6 -28 -15
-32 -22 -6 -9 -12 -9 -26 -1 -13 9 -24 9 -38 1 -17 -9 -18 -9 -5 7 9 11 24 15
43 12 15 -2 28 -1 28 3 0 4 12 7 28 8 l27 2 -25 -10z m-112 -15 c-2 -11 5 -18
20 -20 17 -3 21 0 16 8 -5 8 -1 8 10 -1 15 -13 16 -15 2 -23 -9 -5 -20 -7 -24
-4 -5 3 -16 -4 -26 -15 -9 -12 -24 -18 -34 -15 -22 7 -56 -14 -60 -38 -2 -12
1 -16 9 -10 7 4 10 3 6 -3 -4 -6 -18 -10 -31 -10 -22 0 -23 1 -10 14 8 8 12
18 9 23 -3 5 4 12 16 15 11 4 18 9 16 12 -9 8 -48 -18 -42 -28 4 -5 2 -9 -3
-9 -22 0 -18 15 14 48 19 20 33 41 30 48 -3 8 2 11 16 9 11 -3 28 0 37 5 24
14 32 12 29 -6z m547 -6 c4 -3 1 -17 -7 -31 -11 -21 -15 -23 -26 -11 -13 14
-12 15 10 18 6 0 12 7 14 14 1 7 0 8 -3 2 -2 -5 -10 -7 -16 -3 -15 9 -41 14
-33 6 3 -3 1 -14 -4 -24 -7 -12 -6 -20 2 -25 7 -5 8 -3 3 6 -5 8 -3 11 6 8 8
-3 13 -10 12 -15 -1 -6 16 -9 38 -7 37 3 39 1 27 -13 -11 -14 -11 -16 0 -9 10
6 13 3 10 -10 -2 -11 -8 -19 -13 -19 -6 0 -15 -4 -22 -8 -12 -8 -43 1 -43 12
0 4 3 11 8 17 4 5 6 8 4 7 -4 -2 -18 9 -48 36 -11 10 -12 16 -3 27 7 8 9 17 5
21 -3 3 -6 1 -6 -5 0 -7 -4 -12 -8 -12 -5 0 -9 6 -9 13 0 14 89 18 102 5z"/>
<path d="M3044 5908 c9 -5 22 -6 29 -2 9 6 9 4 -1 -8 -9 -11 -10 -18 -2 -23 5
-3 10 -1 10 5 0 6 5 8 11 4 8 -5 8 -1 0 14 -6 12 -21 20 -37 20 -22 0 -24 -2
-10 -10z"/>
<path d="M6030 4380 c5 -10 6 -20 3 -24 -3 -3 -2 -6 4 -6 6 0 10 10 9 23 0 13
-6 24 -13 24 -8 0 -9 -6 -3 -17z"/>
<path d="M6016 4278 c3 -5 10 -6 15 -3 13 9 11 12 -6 12 -8 0 -12 -4 -9 -9z"/>
<path d="M4083 2245 c0 -8 4 -15 9 -15 4 0 8 4 8 9 0 6 -4 12 -8 15 -5 3 -9
-1 -9 -9z"/>
<path d="M4032 2216 c4 -5 3 -15 -3 -22 -6 -7 -6 -14 -1 -18 6 -3 15 0 21 8 9
10 7 17 -6 27 -10 7 -15 9 -11 5z"/>
<path d="M3870 2200 c0 -4 7 -7 15 -6 23 3 26 12 5 13 -11 1 -20 -2 -20 -7z"/>
<path d="M3859 2157 c8 -10 16 -15 19 -13 2 3 12 -3 21 -12 9 -10 15 -16 14
-13 -2 2 1 9 7 15 5 7 5 17 0 26 -7 10 -10 11 -10 3 0 -14 -26 -13 -50 2 -13
8 -13 7 -1 -8z"/>
<path d="M3524 2088 c-3 -5 -11 -5 -17 -2 -8 4 -7 2 1 -7 11 -12 14 -12 22 1
6 9 10 10 10 3 0 -7 -7 -16 -16 -21 -11 -6 -13 -12 -6 -16 6 -4 16 4 23 16 7
13 17 26 23 30 6 4 0 6 -12 5 -13 -1 -26 -5 -28 -9z"/>
<path d="M3414 2058 c-4 -5 -12 -7 -20 -4 -7 3 -16 1 -19 -5 -4 -5 -10 -7 -15
-4 -5 3 -12 1 -15 -5 -5 -8 -11 -8 -20 0 -9 8 -15 8 -20 0 -3 -6 -10 -8 -15
-5 -5 3 -11 1 -15 -5 -4 -6 -10 -8 -15 -5 -5 3 -12 0 -16 -7 -4 -7 -3 -10 1
-5 5 4 26 -9 47 -30 21 -20 38 -33 38 -29 0 5 6 3 14 -3 12 -10 14 -9 11 6 -1
10 0 23 4 28 3 6 6 15 6 20 0 6 14 9 30 7 51 -5 60 -5 75 -1 10 3 15 -3 15
-15 0 -11 5 -21 12 -23 7 -3 11 4 10 16 -1 12 -5 21 -10 21 -5 0 -5 6 0 13 17
20 12 47 -8 44 -10 -2 -22 -6 -25 -10 -10 -10 -26 -9 -20 1 3 5 -2 9 -10 9 -8
0 -17 -4 -20 -9z m32 -33 c1 -9 -2 -12 -9 -8 -30 19 -95 5 -82 -17 3 -5 1 -11
-5 -15 -6 -4 -8 -10 -5 -15 3 -4 -2 -7 -10 -6 -21 3 -65 47 -59 58 3 5 9 7 12
4 3 -3 11 -1 18 5 8 7 14 7 19 -1 5 -8 11 -8 21 1 8 6 14 8 14 4 0 -4 7 -2 15
5 12 10 15 10 15 -1 0 -10 5 -9 17 4 18 18 35 10 39 -18z m49 7 c-3 -3 -12 -7
-19 -8 -12 -2 -13 4 -7 35 1 2 8 -2 16 -9 9 -7 13 -15 10 -18z"/>
<path d="M3416 2042 c-3 -5 1 -9 9 -9 8 0 12 4 9 9 -3 4 -7 8 -9 8 -2 0 -6 -4
-9 -8z"/>
<path d="M3305 2021 c-3 -6 -12 -8 -18 -5 -7 4 -1 -5 12 -19 19 -21 27 -24 38
-15 7 6 11 13 8 16 -3 3 1 12 8 21 10 14 10 14 -4 4 -11 -9 -19 -9 -26 -2 -8
8 -13 8 -18 0z m29 -33 c-3 -5 -12 -4 -20 3 -7 6 -11 15 -8 21 3 5 12 4 20 -3
7 -6 11 -15 8 -21z"/>
<path d="M2904 1965 c-5 -11 -11 -12 -27 -4 -20 9 -20 9 -4 -4 9 -8 17 -17 17
-21 0 -8 -24 -3 -31 7 -3 5 -9 1 -12 -8 -4 -9 -3 -13 3 -10 6 3 10 0 10 -7 0
-10 2 -10 9 1 6 9 11 10 15 2 13 -20 28 -12 20 11 -6 20 -5 21 10 9 10 -9 16
-10 16 -2 0 6 -5 11 -11 11 -6 0 -9 7 -5 15 3 8 3 15 0 15 -2 0 -7 -7 -10 -15z"/>
<path d="M3465 1880 c3 -5 1 -10 -4 -10 -6 0 -11 -5 -11 -11 0 -8 5 -8 15 1
17 14 20 30 4 30 -5 0 -7 -4 -4 -10z"/>
<path d="M2426 6184 c-11 -8 -29 -11 -40 -8 -19 6 -19 4 3 -15 13 -11 25 -21
27 -21 12 0 34 14 34 22 0 6 -7 5 -15 -2 -9 -7 -19 -10 -22 -6 -7 7 9 21 32
29 6 3 8 7 5 10 -3 3 -14 -1 -24 -9z"/>
<path d="M2703 6172 c-5 -4 -13 -16 -17 -27 -4 -11 -4 -16 0 -12 4 3 19 -2 33
-12 14 -10 31 -16 38 -14 6 2 14 0 17 -6 4 -6 13 -8 21 -5 7 3 18 -4 25 -16 6
-11 15 -18 20 -15 5 3 15 -4 23 -15 7 -11 16 -17 20 -14 8 8 58 -26 52 -36 -3
-4 2 -10 10 -14 8 -3 17 0 21 6 5 7 2 8 -6 3 -8 -5 -11 -4 -7 3 5 7 15 7 32
-1 23 -11 36 -30 16 -24 -5 1 -9 -2 -10 -7 -1 -6 15 -10 34 -11 19 0 35 3 35
7 0 4 -5 8 -10 8 -6 0 -22 12 -36 28 -14 15 -23 20 -19 12 4 -8 -5 0 -20 18
-15 18 -30 30 -35 27 -4 -3 -11 2 -14 11 -4 9 -9 14 -12 11 -3 -2 -17 6 -31
19 -14 13 -29 21 -34 18 -5 -3 -9 1 -9 8 0 9 -3 9 -10 -2 -9 -14 -11 -13 -14
10 0 6 -5 10 -11 11 -5 0 -16 5 -22 11 -7 6 -13 7 -13 3 0 -4 -6 -3 -12 2 -20
15 -44 22 -55 15z m37 -17 c0 4 7 2 15 -5 8 -7 15 -9 15 -5 0 4 6 2 13 -4 8
-6 18 -7 22 -3 5 4 5 2 2 -4 -8 -14 17 -37 28 -26 5 4 5 2 2 -4 -4 -7 0 -14 8
-17 10 -4 12 -1 9 11 -5 16 -4 16 9 0 8 -10 16 -15 19 -12 3 2 8 -2 11 -10 9
-24 -12 -30 -34 -10 -10 9 -19 13 -19 8 0 -5 -7 2 -16 14 -9 13 -22 21 -30 18
-8 -3 -17 1 -21 9 -4 11 -9 12 -17 5 -9 -7 -19 -4 -35 11 -23 22 -19 48 5 28
8 -6 14 -8 14 -4z m202 -125 c5 0 6 5 3 10 -10 16 1 11 16 -7 10 -11 10 -14 2
-9 -7 4 -13 2 -13 -4 0 -6 -10 -4 -24 6 -16 10 -23 21 -19 32 6 13 8 12 16 -6
6 -12 14 -22 19 -22z"/>
<path d="M2724 6142 c18 -21 29 -23 27 -5 -1 4 -4 8 -8 8 -5 0 -15 4 -23 9 -9
6 -7 1 4 -12z"/>
<path d="M2776 6127 c3 -10 9 -15 12 -12 3 3 0 11 -7 18 -10 9 -11 8 -5 -6z"/>
<path d="M2867 6069 c7 -7 15 -10 18 -7 3 3 -2 9 -12 12 -14 6 -15 5 -6 -5z"/>
<path d="M2334 6115 c3 -9 0 -15 -9 -15 -8 0 -15 -5 -15 -10 0 -7 6 -7 20 0
16 9 19 40 3 40 -3 0 -3 -7 1 -15z"/>
<path d="M2278 6103 c7 -3 16 -2 19 1 4 3 -2 6 -13 5 -11 0 -14 -3 -6 -6z"/>
<path d="M2232 6084 c-7 -8 -8 -14 -3 -14 10 0 25 19 20 25 -2 1 -10 -3 -17
-11z"/>
<path d="M2270 6076 c7 -7 13 -7 20 0 6 6 3 10 -10 10 -13 0 -16 -4 -10 -10z"/>
<path d="M2240 6059 c-12 -9 -12 -10 3 -5 15 5 17 2 12 -17 -5 -20 -5 -20 6
-4 14 23 0 40 -21 26z"/>
<path d="M2205 6040 c-3 -5 -1 -10 4 -10 6 0 11 5 11 10 0 6 -2 10 -4 10 -3 0
-8 -4 -11 -10z"/>
<path d="M2188 6013 c6 -2 10 -9 7 -14 -4 -5 1 -6 10 -2 13 5 14 7 3 14 -7 5
-17 8 -23 8 -5 0 -4 -3 3 -6z"/>
<path d="M2212 5985 c4 -4 0 -14 -10 -21 -9 -7 -15 -14 -12 -17 3 -2 13 4 23
13 15 14 16 20 5 26 -7 4 -10 4 -6 -1z"/>
<path d="M2155 5970 c3 -5 8 -10 11 -10 2 0 4 5 4 10 0 6 -5 10 -11 10 -5 0
-7 -4 -4 -10z"/>
<path d="M2125 5920 c-3 -6 1 -7 9 -4 18 7 21 14 7 14 -6 0 -13 -4 -16 -10z"/>
<path d="M2170 5920 c0 -5 5 -10 10 -10 6 0 10 5 10 10 0 6 -4 10 -10 10 -5 0
-10 -4 -10 -10z"/>
<path d="M2139 5908 c-4 -15 -6 -50 -3 -40 3 6 10 10 15 6 5 -3 9 0 9 5 0 6
-5 11 -11 11 -5 0 -7 5 -4 10 3 6 4 10 1 10 -3 0 -6 -1 -7 -2z"/>
<path d="M2127 5839 c7 -7 15 -10 18 -7 3 3 -2 9 -12 12 -14 6 -15 5 -6 -5z"/>
<path d="M2056 5762 c-3 -4 4 -9 15 -9 23 -2 25 3 4 10 -8 4 -16 3 -19 -1z"/>
<path d="M2040 5676 c0 -8 4 -17 9 -20 5 -4 7 3 4 14 -6 23 -13 26 -13 6z"/>
<path d="M2073 5645 c0 -8 4 -12 9 -9 4 3 8 9 8 15 0 5 -4 9 -8 9 -5 0 -9 -7
-9 -15z"/>
<path d="M2030 5623 c8 -3 7 -9 -1 -19 -7 -8 -9 -17 -5 -21 3 -3 6 -1 6 6 0 7
4 10 9 7 5 -4 8 2 7 11 -2 9 -8 18 -15 19 -7 2 -7 0 -1 -3z"/>
<path d="M2015 5561 c-3 -5 -2 -12 3 -15 5 -3 9 1 9 9 0 17 -3 19 -12 6z"/>
<path d="M2036 5533 c-6 -14 -5 -15 5 -6 7 7 10 15 7 18 -3 3 -9 -2 -12 -12z"/>
<path d="M2034 5489 c-3 -6 -2 -15 3 -20 5 -5 9 -1 9 11 0 23 -2 24 -12 9z"/>
<path d="M2010 5410 c-9 -6 -10 -10 -3 -10 6 0 15 5 18 10 8 12 4 12 -15 0z"/>
<path d="M2026 5343 c-6 -14 -5 -15 5 -6 7 7 10 15 7 18 -3 3 -9 -2 -12 -12z"/>
<path d="M1987 5339 c7 -7 15 -10 18 -7 3 3 -2 9 -12 12 -14 6 -15 5 -6 -5z"/>
<path d="M5455 5300 c3 -5 8 -10 11 -10 2 0 4 5 4 10 0 6 -5 10 -11 10 -5 0
-7 -4 -4 -10z"/>
<path d="M1988 5293 c7 -3 16 -2 19 1 4 3 -2 6 -13 5 -11 0 -14 -3 -6 -6z"/>
<path d="M2021 5274 c0 -11 3 -14 6 -6 3 7 2 16 -1 19 -3 4 -6 -2 -5 -13z"/>
<path d="M5373 5275 c0 -8 4 -12 9 -9 5 3 6 10 3 15 -9 13 -12 11 -12 -6z"/>
<path d="M5190 5265 c0 -7 30 -13 34 -7 3 4 -4 9 -15 9 -10 1 -19 0 -19 -2z"/>
<path d="M5675 5220 c3 -5 8 -10 11 -10 2 0 4 5 4 10 0 6 -5 10 -11 10 -5 0
-7 -4 -4 -10z"/>
<path d="M5015 5191 c-3 -5 -2 -12 3 -15 5 -3 9 1 9 9 0 17 -3 19 -12 6z"/>
<path d="M1986 5178 c3 -5 10 -6 15 -3 13 9 11 12 -6 12 -8 0 -12 -4 -9 -9z"/>
<path d="M5817 5156 c-4 -10 -1 -13 8 -9 8 3 12 9 9 14 -7 12 -11 11 -17 -5z"/>
<path d="M4896 5138 c3 -5 10 -6 15 -3 13 9 11 12 -6 12 -8 0 -12 -4 -9 -9z"/>
<path d="M5850 5125 c-9 -11 -10 -19 -3 -26 8 -8 13 -7 18 2 5 8 4 10 -3 5
-16 -9 -15 7 0 22 7 7 9 12 6 12 -3 0 -11 -7 -18 -15z"/>
<path d="M1999 5108 c-5 -16 -5 -98 0 -98 4 0 7 23 7 50 0 41 -3 61 -7 48z"/>
<path d="M4755 5080 c3 -5 8 -10 11 -10 2 0 4 5 4 10 0 6 -5 10 -11 10 -5 0
-7 -4 -4 -10z"/>
<path d="M5876 5079 c2 -4 -2 -10 -8 -12 -8 -4 -9 -6 -2 -6 6 -1 17 5 23 12 8
10 7 14 -4 14 -8 0 -12 -4 -9 -8z"/>
<path d="M4715 5059 c-3 -4 2 -6 10 -5 21 3 28 13 10 13 -9 0 -18 -4 -20 -8z"/>
<path d="M5894 5058 c-4 -7 -4 -10 1 -6 4 4 14 0 21 -10 7 -9 14 -15 17 -12 2
3 -4 13 -13 23 -14 15 -20 16 -26 5z"/>
<path d="M5875 5031 c-3 -5 -2 -12 3 -15 5 -3 9 1 9 9 0 17 -3 19 -12 6z"/>
<path d="M4509 4923 c-13 -16 -12 -17 4 -4 16 13 21 21 13 21 -2 0 -10 -8 -17
-17z"/>
<path d="M1970 4918 c0 -4 4 -8 9 -8 6 0 12 4 15 8 3 5 -1 9 -9 9 -8 0 -15 -4
-15 -9z"/>
<path d="M1980 4860 c-9 -6 -10 -10 -3 -10 6 0 15 5 18 10 8 12 4 12 -15 0z"/>
<path d="M1999 4843 c0 -5 -2 -16 -4 -26 -2 -11 -1 -16 3 -13 8 8 14 46 7 46
-3 0 -5 -3 -6 -7z"/>
<path d="M2010 4760 c0 -5 5 -10 11 -10 5 0 7 5 4 10 -3 6 -8 10 -11 10 -2 0
-4 -4 -4 -10z"/>
<path d="M4195 4731 c-3 -5 -2 -12 3 -15 5 -3 9 1 9 9 0 17 -3 19 -12 6z"/>
<path d="M1975 4680 c3 -5 8 -10 11 -10 2 0 4 5 4 10 0 6 -5 10 -11 10 -5 0
-7 -4 -4 -10z"/>
<path d="M2004 4615 c-4 -8 -11 -12 -18 -8 -6 4 -4 -2 4 -13 22 -29 23 -30 18
-14 -3 8 -1 23 4 33 5 9 6 17 3 17 -3 0 -8 -7 -11 -15z"/>
<path d="M2006 4442 c-3 -5 1 -9 9 -9 8 0 15 4 15 9 0 4 -4 8 -9 8 -6 0 -12
-4 -15 -8z"/>
<path d="M2035 4410 c3 -5 8 -10 11 -10 2 0 4 5 4 10 0 6 -5 10 -11 10 -5 0
-7 -4 -4 -10z"/>
<path d="M1995 4380 c3 -5 8 -10 11 -10 2 0 4 5 4 10 0 6 -5 10 -11 10 -5 0
-7 -4 -4 -10z"/>
<path d="M2021 4364 c0 -11 3 -14 6 -6 3 7 2 16 -1 19 -3 4 -6 -2 -5 -13z"/>
<path d="M1996 4333 c-6 -14 -5 -15 5 -6 7 7 10 15 7 18 -3 3 -9 -2 -12 -12z"/>
<path d="M2040 4320 c-9 -6 -10 -10 -3 -10 6 0 15 5 18 10 8 12 4 12 -15 0z"/>
<path d="M2041 4276 c-9 -11 -9 -16 0 -22 7 -4 9 -3 5 4 -3 5 0 12 6 15 7 2
10 7 7 11 -3 4 -12 0 -18 -8z"/>
<path d="M2006 4242 c-3 -5 1 -9 9 -9 8 0 15 4 15 9 0 4 -4 8 -9 8 -6 0 -12
-4 -15 -8z"/>
<path d="M2039 4228 c-7 -23 -3 -45 8 -41 16 6 17 23 2 23 -5 0 -7 5 -4 10 3
6 4 10 1 10 -3 0 -6 -1 -7 -2z"/>
<path d="M2024 4129 c0 -10 4 -19 9 -19 4 0 5 -5 1 -12 -4 -6 -3 -8 4 -5 5 4
8 16 5 27 -7 27 -19 33 -19 9z"/>
<path d="M2050 4086 c0 -2 7 -7 16 -10 8 -3 12 -2 9 4 -6 10 -25 14 -25 6z"/>
<path d="M2037 4052 c5 -11 3 -13 -7 -7 -9 6 -11 4 -5 -5 6 -10 11 -10 20 3 7
9 14 16 16 14 2 -1 3 0 1 2 -1 3 -9 6 -17 7 -9 1 -11 -4 -8 -14z"/>
<path d="M2064 4035 c-18 -14 -18 -14 4 -8 12 3 22 9 22 14 0 12 -3 11 -26 -6z"/>
<path d="M2034 3984 c6 -29 16 -45 16 -24 0 10 3 10 15 0 9 -7 18 -10 22 -6 3
3 1 6 -6 6 -7 0 -9 5 -6 10 4 6 11 7 17 4 7 -4 8 -2 4 5 -6 9 -11 9 -22 0 -12
-10 -16 -8 -21 9 -8 31 -24 27 -19 -4z"/>
<path d="M1855 3991 c-3 -5 -2 -12 3 -15 5 -3 9 1 9 9 0 17 -3 19 -12 6z"/>
<path d="M1649 3957 c6 -8 7 -18 3 -22 -4 -5 -1 -5 6 -1 10 6 10 11 1 22 -6 8
-14 14 -16 14 -3 0 0 -6 6 -13z"/>
<path d="M1065 3880 c-3 -6 1 -7 9 -4 18 7 21 14 7 14 -6 0 -13 -4 -16 -10z"/>
<path d="M275 3211 c-3 -5 -2 -12 3 -15 5 -3 9 1 9 9 0 17 -3 19 -12 6z"/>
<path d="M4956 2667 c3 -10 9 -15 12 -12 3 3 0 11 -7 18 -10 9 -11 8 -5 -6z"/>
<path d="M5015 2641 c-3 -5 -2 -12 3 -15 5 -3 9 1 9 9 0 17 -3 19 -12 6z"/>
<path d="M5090 2620 c0 -5 5 -10 11 -10 5 0 7 5 4 10 -3 6 -8 10 -11 10 -2 0
-4 -4 -4 -10z"/>
<path d="M5110 2576 c0 -2 8 -10 18 -17 15 -13 16 -12 3 4 -13 16 -21 21 -21
13z"/>
<path d="M625 2521 c1 -45 11 -62 32 -54 11 4 14 3 9 -5 -4 -7 -1 -15 8 -18 9
-3 13 -11 9 -17 -3 -6 -1 -7 5 -3 7 4 12 2 12 -4 0 -6 12 -9 28 -6 15 2 30 5
34 5 4 1 5 8 1 17 -4 11 -8 12 -13 4 -5 -7 -11 -6 -21 6 -8 9 -13 19 -11 21 1
1 0 3 -4 3 -3 -1 -19 17 -37 39 -43 54 -53 56 -52 12z m90 -53 c5 2 7 0 3 -4
-4 -4 -3 -13 4 -21 19 -23 0 -26 -28 -4 -15 11 -22 21 -16 21 6 0 9 7 6 15 -4
8 -11 12 -17 8 -5 -3 -7 -1 -3 5 3 6 2 13 -4 17 -10 6 -15 -9 -10 -30 1 -5 -2
-6 -6 -2 -12 12 -13 37 -2 37 6 0 5 7 -2 18 -7 9 5 -1 26 -23 21 -22 43 -38
49 -37z"/>
<path d="M690 2456 c0 -2 8 -10 18 -17 15 -13 16 -12 3 4 -13 16 -21 21 -21
13z"/>
<path d="M5207 2539 c7 -7 15 -10 18 -7 3 3 -2 9 -12 12 -14 6 -15 5 -6 -5z"/>
<path d="M5153 2505 c0 -8 4 -12 9 -9 5 3 6 10 3 15 -9 13 -12 11 -12 -6z"/>
<path d="M4601 2496 c-7 -8 -22 -13 -33 -11 -11 3 -18 1 -14 -2 14 -14 35 -10
52 8 9 10 15 19 12 19 -3 0 -11 -6 -17 -14z"/>
<path d="M5446 2498 c3 -5 10 -6 15 -3 13 9 11 12 -6 12 -8 0 -12 -4 -9 -9z"/>
<path d="M5487 2479 c7 -7 15 -10 18 -7 3 3 -2 9 -12 12 -14 6 -15 5 -6 -5z"/>
<path d="M5375 2460 c-3 -5 -1 -10 4 -10 6 0 11 5 11 10 0 6 -2 10 -4 10 -3 0
-8 -4 -11 -10z"/>
<path d="M4478 2453 c7 -3 16 -2 19 1 4 3 -2 6 -13 5 -11 0 -14 -3 -6 -6z"/>
<path d="M5435 2451 c-3 -5 -2 -12 3 -15 5 -3 9 1 9 9 0 17 -3 19 -12 6z"/>
<path d="M5707 2439 c7 -7 15 -10 18 -7 3 3 -2 9 -12 12 -14 6 -15 5 -6 -5z"/>
<path d="M4517 2429 c7 -7 15 -10 18 -7 3 3 -2 9 -12 12 -14 6 -15 5 -6 -5z"/>
<path d="M4415 2421 c-3 -6 5 -15 17 -22 13 -6 20 -8 16 -4 -4 4 0 14 10 22
15 13 15 13 -5 4 -27 -14 -36 -14 -28 -1 3 6 4 10 1 10 -3 0 -7 -4 -11 -9z"/>
<path d="M4557 2419 c7 -7 15 -10 18 -7 3 3 -2 9 -12 12 -14 6 -15 5 -6 -5z"/>
<path d="M5355 2419 c-3 -4 2 -6 10 -5 21 3 28 13 10 13 -9 0 -18 -4 -20 -8z"/>
<path d="M4530 2399 c0 -5 5 -7 10 -4 6 3 10 8 10 11 0 2 -4 4 -10 4 -5 0 -10
-5 -10 -11z"/>
<path d="M4590 2399 c0 -5 5 -7 10 -4 6 3 10 8 10 11 0 2 -4 4 -10 4 -5 0 -10
-5 -10 -11z"/>
<path d="M4550 2381 c0 -6 7 -7 17 -4 10 4 14 2 9 -5 -9 -15 14 -26 27 -13 9
9 8 11 -6 5 -12 -4 -17 -2 -15 7 2 7 -5 15 -14 17 -10 2 -18 -1 -18 -7z"/>
<path d="M5306 2362 c-3 -5 1 -9 9 -9 8 0 15 4 15 9 0 4 -4 8 -9 8 -6 0 -12
-4 -15 -8z"/>
<path d="M4556 2347 c3 -10 9 -15 12 -12 3 3 0 11 -7 18 -10 9 -11 8 -5 -6z"/>
<path d="M4470 2346 c0 -3 9 -10 20 -16 11 -6 20 -8 20 -6 0 3 -9 10 -20 16
-11 6 -20 8 -20 6z"/>
<path d="M4588 2323 c7 -3 16 -2 19 1 4 3 -2 6 -13 5 -11 0 -14 -3 -6 -6z"/>
<path d="M5254 2316 c1 -8 5 -18 8 -22 4 -3 5 1 4 10 -1 8 -5 18 -8 22 -4 3
-5 -1 -4 -10z"/>
<path d="M5440 2320 c-9 -6 -10 -10 -3 -10 6 0 15 5 18 10 8 12 4 12 -15 0z"/>
<path d="M5153 2305 c0 -8 4 -12 9 -9 5 3 6 10 3 15 -9 13 -12 11 -12 -6z"/>
<path d="M4575 2300 c-3 -5 -2 -15 1 -24 5 -12 2 -15 -10 -10 -9 3 -16 2 -16
-4 0 -6 8 -9 18 -7 10 1 16 10 15 22 -1 12 5 19 17 20 11 1 19 -3 17 -9 -1 -6
5 -13 13 -15 12 -4 12 -3 2 5 -8 5 -13 13 -13 18 1 11 -38 14 -44 4z"/>
<path d="M5286 2302 c-3 -5 1 -9 9 -9 8 0 12 4 9 9 -3 4 -7 8 -9 8 -2 0 -6 -4
-9 -8z"/>
<path d="M4596 2254 c-8 -21 -8 -34 2 -34 4 0 8 11 8 25 2 29 -1 32 -10 9z"/>
<path d="M5219 2268 c-5 -18 -6 -38 -1 -34 7 8 12 36 6 36 -2 0 -4 -1 -5 -2z"/>
<path d="M4630 2230 c6 -11 15 -20 20 -20 6 0 2 9 -7 20 -10 11 -19 20 -21 20
-1 0 2 -9 8 -20z"/>
<path d="M5066 2242 c-3 -5 1 -9 9 -9 8 0 12 4 9 9 -3 4 -7 8 -9 8 -2 0 -6 -4
-9 -8z"/>
<path d="M5116 2233 c-6 -14 -5 -15 5 -6 7 7 10 15 7 18 -3 3 -9 -2 -12 -12z"/>
<path d="M1077 2213 c-11 -11 -8 -23 6 -23 8 0 14 7 14 15 0 16 -9 19 -20 8z"/>
<path d="M4596 2195 c-11 -8 -15 -15 -9 -15 7 0 15 5 18 10 4 6 11 8 16 5 5
-4 9 -1 9 4 0 15 -11 13 -34 -4z"/>
<path d="M4626 2165 c-16 -25 -16 -25 3 -13 11 6 18 15 15 19 -2 4 2 10 8 12
8 4 9 6 2 6 -7 1 -19 -10 -28 -24z"/>
<path d="M4973 2151 c0 -11 5 -18 9 -15 4 3 5 11 1 19 -7 21 -12 19 -10 -4z"/>
<path d="M5190 2161 c0 -6 4 -13 10 -16 6 -3 7 1 4 9 -7 18 -14 21 -14 7z"/>
<path d="M4640 2140 c-9 -6 -10 -10 -3 -10 6 0 15 5 18 10 8 12 4 12 -15 0z"/>
<path d="M4694 2126 c1 -8 5 -18 8 -22 4 -3 5 1 4 10 -1 8 -5 18 -8 22 -4 3
-5 -1 -4 -10z"/>
<path d="M4591 2127 c2 -1 13 -9 24 -17 19 -14 19 -14 6 3 -7 9 -18 17 -24 17
-6 0 -8 -1 -6 -3z"/>
<path d="M4745 2119 c-3 -4 2 -6 10 -5 21 3 28 13 10 13 -9 0 -18 -4 -20 -8z"/>
<path d="M4810 2099 c0 -5 5 -7 10 -4 6 3 10 8 10 11 0 2 -4 4 -10 4 -5 0 -10
-5 -10 -11z"/>
<path d="M4855 2100 c-3 -5 -1 -10 4 -10 6 0 11 5 11 10 0 6 -2 10 -4 10 -3 0
-8 -4 -11 -10z"/>
<path d="M4886 2102 c-3 -5 1 -9 9 -9 8 0 12 4 9 9 -3 4 -7 8 -9 8 -2 0 -6 -4
-9 -8z"/>
<path d="M4580 2085 c0 -2 6 -8 13 -14 10 -8 14 -7 14 2 0 8 -6 14 -14 14 -7
0 -13 -1 -13 -2z"/>
<path d="M4673 2073 c0 -9 4 -10 14 -2 7 6 13 12 13 14 0 1 -6 2 -13 2 -8 0
-14 -6 -14 -14z"/>
<path d="M4815 2071 c-3 -5 -2 -12 3 -15 5 -3 9 1 9 9 0 17 -3 19 -12 6z"/>
<path d="M4770 2060 c0 -5 5 -10 11 -10 5 0 7 5 4 10 -3 6 -8 10 -11 10 -2 0
-4 -4 -4 -10z"/>
<path d="M4060 2040 c0 -5 5 -10 10 -10 6 0 10 5 10 10 0 6 -4 10 -10 10 -5 0
-10 -4 -10 -10z"/>
<path d="M4596 2033 c-6 -14 -5 -15 5 -6 7 7 10 15 7 18 -3 3 -9 -2 -12 -12z"/>
<path d="M4715 2020 c-3 -5 -1 -10 4 -10 6 0 11 5 11 10 0 6 -2 10 -4 10 -3 0
-8 -4 -11 -10z"/>
<path d="M4078 2013 c7 -3 16 -2 19 1 4 3 -2 6 -13 5 -11 0 -14 -3 -6 -6z"/>
<path d="M4675 2001 c-3 -5 -2 -12 3 -15 5 -3 9 1 9 9 0 17 -3 19 -12 6z"/>
<path d="M4570 1980 c0 -5 5 -10 11 -10 5 0 7 5 4 10 -3 6 -8 10 -11 10 -2 0
-4 -4 -4 -10z"/>
<path d="M4029 1953 c12 -8 25 -12 28 -9 4 3 1 6 -6 6 -7 0 -10 4 -7 8 2 4 -5
9 -16 9 -21 2 -21 2 1 -14z"/>
<path d="M4115 1950 c-3 -6 1 -7 9 -4 18 7 21 14 7 14 -6 0 -13 -4 -16 -10z"/>
<path d="M4000 1946 c0 -2 7 -7 16 -10 8 -3 12 -2 9 4 -6 10 -25 14 -25 6z"/>
<path d="M2145 1920 c-3 -6 1 -7 9 -4 18 7 21 14 7 14 -6 0 -13 -4 -16 -10z"/>
<path d="M4043 1918 c-11 -19 -13 -39 -2 -32 5 3 7 9 4 14 -3 5 3 13 12 19 10
6 13 11 6 11 -6 0 -15 -6 -20 -12z"/>
<path d="M2317 1886 c10 -12 18 -22 19 -24 1 -1 4 6 7 17 3 15 1 18 -11 14 -9
-4 -13 -2 -9 4 3 5 0 10 -8 10 -12 0 -12 -4 2 -21z"/>
<path d="M2134 1880 c0 -13 4 -16 10 -10 7 7 7 13 0 20 -6 6 -10 3 -10 -10z"/>
<path d="M4095 1891 c-3 -5 -2 -12 3 -15 5 -3 9 1 9 9 0 17 -3 19 -12 6z"/>
<path d="M2230 1886 c0 -2 7 -7 16 -10 8 -3 12 -2 9 4 -6 10 -25 14 -25 6z"/>
<path d="M2199 1878 c-6 -20 -6 -39 0 -42 4 -3 7 6 7 20 0 20 -4 32 -7 22z"/>
<path d="M2266 1863 c-6 -14 -5 -15 5 -6 7 7 10 15 7 18 -3 3 -9 -2 -12 -12z"/>
<path d="M2235 1840 c-3 -5 -1 -10 4 -10 6 0 11 5 11 10 0 6 -2 10 -4 10 -3 0
-8 -4 -11 -10z"/>
<path d="M2305 1839 c-4 -6 -5 -12 -2 -15 2 -3 7 2 10 11 7 17 1 20 -8 4z"/>
<path d="M2870 1840 c0 -5 5 -10 10 -10 6 0 10 -5 10 -11 0 -5 -4 -7 -10 -4
-5 3 -10 2 -10 -3 0 -6 8 -13 17 -16 10 -4 14 -4 10 0 -4 4 -3 12 3 18 6 8 2
16 -11 24 -11 7 -19 8 -19 2z"/>
<path d="M3435 1810 c-3 -5 -1 -10 4 -10 6 0 11 5 11 10 0 6 -2 10 -4 10 -3 0
-8 -4 -11 -10z"/>
<path d="M2155 1800 c-3 -5 -1 -10 4 -10 6 0 11 5 11 10 0 6 -2 10 -4 10 -3 0
-8 -4 -11 -10z"/>
<path d="M2236 1787 c3 -10 9 -15 12 -12 3 3 0 11 -7 18 -10 9 -11 8 -5 -6z"/>
<path d="M2205 1782 c-13 -9 -17 -32 -6 -32 5 0 11 9 14 20 6 22 6 22 -8 12z"/>
<path d="M2874 1782 c3 -5 0 -13 -6 -15 -8 -3 -6 -6 5 -6 19 -1 23 14 5 25 -6
4 -8 3 -4 -4z"/>
<path d="M3416 1781 c-4 -5 3 -7 14 -4 23 6 26 13 6 13 -8 0 -17 -4 -20 -9z"/>
<path d="M2260 1775 c0 -5 5 -17 10 -25 5 -8 10 -10 10 -5 0 6 -5 17 -10 25
-5 8 -10 11 -10 5z"/>
<path d="M2822 1760 c7 -10 14 -18 15 -16 6 6 -9 36 -18 36 -5 0 -4 -9 3 -20z"/>
<path d="M3436 1761 c9 -9 34 -9 34 -1 0 5 -9 8 -20 7 -10 -1 -17 -3 -14 -6z"/>
<path d="M2855 1741 c3 -6 14 -9 25 -8 23 2 17 10 -11 14 -11 2 -18 -1 -14 -6z"/>
<path d="M2218 1728 c5 -5 16 -8 23 -6 8 3 3 7 -10 11 -17 4 -21 3 -13 -5z"/>
<path d="M2831 1712 c15 -9 24 -24 22 -32 -4 -13 -3 -13 6 0 8 11 7 18 -4 26
-8 6 -13 13 -10 15 2 3 -6 6 -17 6 -21 2 -20 1 3 -15z"/>
<path d="M3510 1720 c0 -5 5 -10 10 -10 6 0 10 5 10 10 0 6 -4 10 -10 10 -5 0
-10 -4 -10 -10z"/>
<path d="M3550 1721 c0 -6 4 -13 10 -16 6 -3 7 1 4 9 -7 18 -14 21 -14 7z"/>
<path d="M2802 1707 c10 -8 14 -18 10 -22 -4 -5 -1 -5 6 -1 17 10 15 14 -10
26 -21 10 -21 10 -6 -3z"/>
<path d="M2870 1716 c0 -2 7 -9 15 -16 13 -11 14 -10 9 4 -5 14 -24 23 -24 12z"/>
<path d="M3430 1702 c0 -5 7 -9 15 -9 8 0 12 4 9 9 -3 4 -9 8 -15 8 -5 0 -9
-4 -9 -8z"/>
<path d="M2174 1679 c0 -12 4 -15 11 -9 6 5 21 8 34 5 13 -2 19 0 15 6 -3 6
-8 8 -11 5 -3 -2 -15 -1 -27 4 -17 6 -22 4 -22 -11z"/>
<path d="M3909 1683 c-13 -16 -12 -17 4 -4 16 13 21 21 13 21 -2 0 -10 -8 -17
-17z"/>
<path d="M3506 1682 c-3 -5 1 -9 9 -9 8 0 15 4 15 9 0 4 -4 8 -9 8 -6 0 -12
-4 -15 -8z"/>
<path d="M3990 1686 c0 -2 7 -7 16 -10 8 -3 12 -2 9 4 -6 10 -25 14 -25 6z"/>
<path d="M3413 1665 c0 -8 4 -12 9 -9 5 3 6 10 3 15 -9 13 -12 11 -12 -6z"/>
<path d="M2846 1643 c-6 -14 -5 -15 5 -6 7 7 10 15 7 18 -3 3 -9 -2 -12 -12z"/>
<path d="M1510 1640 c0 -5 5 -10 11 -10 5 0 7 5 4 10 -3 6 -8 10 -11 10 -2 0
-4 -4 -4 -10z"/>
<path d="M2813 1635 c0 -8 4 -12 9 -9 5 3 6 10 3 15 -9 13 -12 11 -12 -6z"/>
<path d="M2871 1647 c2 -1 13 -9 24 -17 19 -14 19 -14 6 3 -7 9 -18 17 -24 17
-6 0 -8 -1 -6 -3z"/>
<path d="M2271 1627 c-8 -10 -7 -14 2 -14 8 0 14 6 14 14 0 7 -1 13 -2 13 -2
0 -8 -6 -14 -13z"/>
<path d="M2144 1622 c4 -3 14 -7 22 -8 9 -1 13 0 10 4 -4 3 -14 7 -22 8 -9 1
-13 0 -10 -4z"/>
<path d="M2226 1622 c-3 -5 1 -9 9 -9 8 0 12 4 9 9 -3 4 -7 8 -9 8 -2 0 -6 -4
-9 -8z"/>
<path d="M1519 1593 c-13 -16 -12 -17 4 -4 9 7 17 15 17 17 0 8 -8 3 -21 -13z"/>
<path d="M2117 1595 c-4 -8 -3 -16 1 -19 4 -3 9 4 9 15 2 23 -3 25 -10 4z"/>
<path d="M3466 1598 c3 -5 10 -6 15 -3 13 9 11 12 -6 12 -8 0 -12 -4 -9 -9z"/>
<path d="M2875 1591 c-3 -5 -2 -12 3 -15 5 -3 9 1 9 9 0 17 -3 19 -12 6z"/>
<path d="M1630 1579 c0 -5 5 -7 10 -4 6 3 10 8 10 11 0 2 -4 4 -10 4 -5 0 -10
-5 -10 -11z"/>
<path d="M2243 1578 c-11 -19 -13 -39 -1 -32 5 3 7 9 4 12 -3 3 -1 11 5 19 6
7 9 13 6 13 -3 0 -9 -6 -14 -12z"/>
<path d="M2284 1562 c23 -26 23 -26 23 -7 0 8 -3 13 -5 10 -3 -3 -12 1 -21 7
-10 8 -9 4 3 -10z"/>
<path d="M2756 1558 c3 -5 10 -6 15 -3 13 9 11 12 -6 12 -8 0 -12 -4 -9 -9z"/>
<path d="M3331 1567 c2 -1 13 -9 24 -17 19 -14 19 -14 6 3 -7 9 -18 17 -24 17
-6 0 -8 -1 -6 -3z"/>
<path d="M1693 1545 c0 -8 4 -12 9 -9 5 3 6 10 3 15 -9 13 -12 11 -12 -6z"/>
<path d="M1606 1542 c-3 -5 1 -9 9 -9 8 0 12 4 9 9 -3 4 -7 8 -9 8 -2 0 -6 -4
-9 -8z"/>
<path d="M2896 1542 c-2 -4 -1 -14 4 -22 7 -11 9 -9 7 8 -1 24 -3 26 -11 14z"/>
<path d="M2056 1527 c3 -10 9 -15 12 -12 3 3 0 11 -7 18 -10 9 -11 8 -5 -6z"/>
<path d="M2110 1536 c0 -2 8 -10 18 -17 15 -13 16 -12 3 4 -13 16 -21 21 -21
13z"/>
<path d="M1567 1519 c7 -7 15 -10 18 -7 3 3 -2 9 -12 12 -14 6 -15 5 -6 -5z"/>
<path d="M2970 1526 c0 -2 7 -7 16 -10 8 -3 12 -2 9 4 -6 10 -25 14 -25 6z"/>
<path d="M1726 1502 c-3 -5 1 -9 9 -9 8 0 12 4 9 9 -3 4 -7 8 -9 8 -2 0 -6 -4
-9 -8z"/>
<path d="M2190 1460 c0 -5 5 -10 11 -10 5 0 7 5 4 10 -3 6 -8 10 -11 10 -2 0
-4 -4 -4 -10z"/>
<path d="M2236 1453 c-6 -14 -5 -15 5 -6 7 7 10 15 7 18 -3 3 -9 -2 -12 -12z"/>
<path d="M1509 1443 c-13 -16 -12 -17 4 -4 9 7 17 15 17 17 0 8 -8 3 -21 -13z"/>
<path d="M1885 1440 c-3 -6 1 -7 9 -4 18 7 21 14 7 14 -6 0 -13 -4 -16 -10z"/>
</g>
</svg>
